<svg xmlns="http://www.w3.org/2000/svg" width="178.476" height="178.483" viewBox="0 0 178.476 178.483">
  <g id="avatar" transform="translate(0 0)">
    <path id="패스_4230" data-name="패스 4230" d="M40.338,120.987,13.71,135.512a23.929,23.929,0,0,0-4.273,3.041,89.185,89.185,0,0,0,114.589.3,23.621,23.621,0,0,0-4.694-3.145L90.818,121.449a10.874,10.874,0,0,1-6.011-9.726V100.536a43.069,43.069,0,0,0,2.7-3.469,65.609,65.609,0,0,0,8.864-17.862,8.956,8.956,0,0,0,6.351-8.52V58.744a8.915,8.915,0,0,0-2.984-6.617V34.864S103.282,8,66.9,8,34.068,34.864,34.068,34.864V52.127a8.9,8.9,0,0,0-2.984,6.617V70.686A8.953,8.953,0,0,0,35.213,78.2a59.259,59.259,0,0,0,10.8,22.337v10.911A10.885,10.885,0,0,1,40.338,120.987Z" transform="translate(22.343 18.943)" fill="#e7eced"/>
    <g id="그룹_1389" data-name="그룹 1389" transform="translate(0 0)">
      <path id="패스_4231" data-name="패스 4231" d="M90.767.013a89.185,89.185,0,0,0-58.95,157.456,23.713,23.713,0,0,1,4.233-3.011l26.628-14.524a10.878,10.878,0,0,0,5.668-9.547V119.476a59.2,59.2,0,0,1-10.8-22.337,8.956,8.956,0,0,1-4.129-7.513V77.684A8.915,8.915,0,0,1,56.4,71.066V53.8S52.858,26.941,89.238,26.941,122.072,53.8,122.072,53.8V71.066a8.9,8.9,0,0,1,2.984,6.617V89.625a8.956,8.956,0,0,1-6.351,8.52,65.61,65.61,0,0,1-8.864,17.862,43.066,43.066,0,0,1-2.7,3.469v11.187a10.87,10.87,0,0,0,6.011,9.726l28.513,14.255a23.742,23.742,0,0,1,4.681,3.139A89.22,89.22,0,0,0,90.767.013Z" transform="translate(0 0)" fill="#0652dd"/>
    </g>
  </g>
</svg>
