<svg xmlns="http://www.w3.org/2000/svg" width="32.417" height="32.417" viewBox="0 0 32.417 32.417">
  <path id="패스_342" data-name="패스 342" d="M56.017,5.5a5.482,5.482,0,0,0-5.5-5.5H29.1a5.482,5.482,0,0,0-5.5,5.5V26.912a5.482,5.482,0,0,0,5.5,5.5h11.01V20.184h-3.67v-5.5h3.67V12.845c0-3.67,2.447-6.728,6.116-6.728h4.282v5.5H46.231a1.316,1.316,0,0,0-1.223,1.223v1.835h5.5v5.5h-5.5V32.417h5.5a5.482,5.482,0,0,0,5.5-5.5Z" transform="translate(-23.6)" fill="#fff" fill-rule="evenodd" opacity="0.6"/>
</svg>
