<svg xmlns="http://www.w3.org/2000/svg" width="32.425" height="32.417" viewBox="0 0 32.425 32.417">
  <path id="패스_343" data-name="패스 343" d="M16.2,22.8A6.592,6.592,0,1,1,22.8,16.2,6.591,6.591,0,0,1,16.2,22.8ZM32.3,8.216a10.788,10.788,0,0,0-.683-3.673,6.135,6.135,0,0,0-1.475-2.276A6.04,6.04,0,0,0,27.866.793,10.99,10.99,0,0,0,24.193.11C22.114.024,21.486,0,16.2,0S10.3.024,8.216.118A10.986,10.986,0,0,0,4.551.793,6.135,6.135,0,0,0,2.276,2.268,6.039,6.039,0,0,0,.8,4.544,10.99,10.99,0,0,0,.118,8.216C.024,10.3,0,10.931,0,16.2s.024,5.9.118,7.989A10.788,10.788,0,0,0,.8,27.866a6.135,6.135,0,0,0,1.475,2.276,6.039,6.039,0,0,0,2.276,1.475,10.99,10.99,0,0,0,3.673.683c2.087.094,2.707.118,7.989.118s5.9-.024,7.989-.118a10.788,10.788,0,0,0,3.673-.683,6.135,6.135,0,0,0,2.276-1.475,6.04,6.04,0,0,0,1.475-2.276,10.99,10.99,0,0,0,.683-3.673c.094-2.087.118-2.707.118-7.989S32.394,10.3,32.3,8.216ZM16.2,26.359A10.154,10.154,0,1,1,26.359,16.2,10.156,10.156,0,0,1,16.2,26.359ZM26.759,8.028a2.37,2.37,0,1,1,2.37-2.37A2.368,2.368,0,0,1,26.759,8.028Z" fill="#fff" opacity="0.6"/>
</svg>
